<?xml version="1.0" encoding="UTF-8"?>
<svg id="OBJECTS" xmlns="http://www.w3.org/2000/svg" version="1.1" viewBox="0 0 500 500">
  <!-- Generator: Adobe Illustrator 29.5.1, SVG Export Plug-In . SVG Version: 2.1.0 Build 141)  -->
  <defs>
    <style>
      .st0 {
        fill: #eae9f1;
      }

      .st1, .st2, .st3 {
        fill: #fff;
      }

      .st1, .st4 {
        font-family: Brigesta, Brigesta;
        font-size: 22.65px;
        letter-spacing: -.03em;
      }

      .st5 {
        fill: #9e171b;
      }

      .st3, .st6 {
        font-family: Montserrat-Regular, Montserrat;
        font-size: 8.79px;
        letter-spacing: -.01em;
      }
    </style>
  </defs>
  <rect class="st0" x="4.47" width="501.46" height="499.34"/>
  <rect width="275.78" height="249.67"/>
  <rect class="st2" x="255.2" width="244.8" height="250"/>
  <g>
    <path class="st5" d="M191.83,379.63c-1-1.49-5.88-13.82-6.21-15.62-.11-.59-.36-1.09.06-1.66l3.39-4.85c-.36-.12-.68-.3-.93-.52-.93,1.37-1.68,2.46-2.04,2.91-.28.36-.62,1.58-1.31,1.03l-13.8-35.17h-1.66c-4.66,12.92-10.49,25.57-15.01,38.53-1.98,5.67-7.79,18.27,2.24,19.88,9.29,1.49,16.75-5.73,22.25-11.7,0,2.38,3.86,7.44,1.81,9.32-.71.65-2.39.38-2.41,1.39h19.11l-4.16-2c-.65-.37-.96-.97-1.35-1.55ZM157.31,376.69c-6.31-2.55-2.75-9.58-1.21-14.1,2.68-7.87,6.56-15.41,8.98-23.38l12.42,30.64c-4.07,5.1-13.64,9.48-20.19,6.84Z"/>
    <path class="st5" d="M218.53,325.11c-7.12.73-12.35,6.5-16.72,11.27-1.89-2.66-5.87-9.96.3-9.58.02-.35-.69-1.07-.9-1.12-4.37-1.05-13.31.78-18.22,0-.16,1.73,2.65,1.37,4.13,2.58,2.94,2.4,5.17,13.98,7.53,17.65-.3.74-.63,1.5-.99,2.27-1.66,3.51-3.64,6.47-5.61,8.91.33.14.67.28,1,.42,2.16-3.09,4.31-6.18,6.47-9.27l13.09,34.6,2.37.26c4.28-12.31,9.69-24.31,14.09-36.58,3.07-8.56,9.87-23.09-6.55-21.4ZM225.42,342.32c-2.03,6.81-5.65,15.23-8.37,21.98-.76,1.88-1.48,4.67-2.99,5.91l-11.26-30.6c6.31-7.97,27.6-13.99,22.63,2.72Z"/>
  </g>
  <text class="st4" transform="translate(228.68 368.74) scale(1.29 1)"><tspan x="0" y="0">VENTURES</tspan></text>
  <text class="st6" transform="translate(245.96 377.48) scale(.85 1)"><tspan x="0" y="0">CAPITAL FINANCIAL</tspan></text>
  <g>
    <g>
      <path class="st2" d="M91.92,155.6c-1-1.49-5.88-13.82-6.21-15.62-.11-.59-.36-1.09.06-1.66l3.39-4.85c-.36-.12-.68-.3-.93-.52-.93,1.37-1.68,2.46-2.04,2.91-.28.36-.62,1.58-1.31,1.03l-13.8-35.17h-1.66c-4.66,12.92-10.49,25.57-15.01,38.53-1.98,5.67-7.79,18.27,2.24,19.88,9.29,1.49,16.75-5.73,22.25-11.7,0,2.38,3.86,7.44,1.81,9.32-.71.65-2.39.38-2.41,1.39h19.11l-4.16-2c-.65-.37-.96-.97-1.35-1.55ZM57.4,152.66c-6.31-2.55-2.75-9.58-1.21-14.1,2.68-7.87,6.56-15.41,8.98-23.38l12.42,30.64c-4.07,5.1-13.64,9.48-20.19,6.84Z"/>
      <path class="st2" d="M118.62,101.08c-7.12.73-12.35,6.5-16.72,11.27-1.89-2.66-5.87-9.96.3-9.58.02-.35-.69-1.07-.9-1.12-4.37-1.05-13.31.78-18.22,0-.16,1.73,2.65,1.37,4.13,2.58,2.94,2.4,5.17,13.98,7.53,17.65-.3.74-.63,1.5-.99,2.27-1.66,3.51-3.64,6.47-5.61,8.91.33.14.67.28,1,.42,2.16-3.09,4.31-6.18,6.47-9.27l13.09,34.6,2.37.26c4.28-12.31,9.69-24.31,14.09-36.58,3.07-8.56,9.87-23.09-6.55-21.4ZM125.51,118.29c-2.03,6.81-5.65,15.23-8.37,21.98-.76,1.88-1.48,4.67-2.99,5.91l-11.26-30.6c6.31-7.97,27.6-13.99,22.63,2.72Z"/>
    </g>
    <text class="st1" transform="translate(128.76 144.72) scale(1.29 1)"><tspan x="0" y="0">VENTURES</tspan></text>
    <text class="st3" transform="translate(146.05 153.45) scale(.85 1)"><tspan x="0" y="0">CAPITAL FINANCIAL</tspan></text>
  </g>
  <g>
    <path d="M341.12,159.27c-1-1.49-5.88-13.82-6.21-15.62-.11-.59-.36-1.09.06-1.66l3.39-4.85c-.36-.12-.68-.3-.93-.52-.93,1.37-1.68,2.46-2.04,2.91-.28.36-.62,1.58-1.31,1.03l-13.8-35.17h-1.66c-4.66,12.92-10.49,25.57-15.01,38.53-1.98,5.67-7.79,18.27,2.24,19.88,9.29,1.49,16.75-5.73,22.25-11.7,0,2.38,3.86,7.44,1.81,9.32-.71.65-2.39.38-2.41,1.39h19.11l-4.16-2c-.65-.37-.96-.97-1.35-1.55ZM306.6,156.34c-6.31-2.55-2.75-9.58-1.21-14.1,2.68-7.87,6.56-15.41,8.98-23.38l12.42,30.64c-4.07,5.1-13.64,9.48-20.19,6.84Z"/>
    <path d="M367.82,104.76c-7.12.73-12.35,6.5-16.72,11.27-1.89-2.66-5.87-9.96.3-9.58.02-.35-.69-1.07-.9-1.12-4.37-1.05-13.31.78-18.22,0-.16,1.73,2.65,1.37,4.13,2.58,2.94,2.4,5.17,13.98,7.53,17.65-.3.74-.63,1.5-.99,2.27-1.66,3.51-3.64,6.47-5.61,8.91.33.14.67.28,1,.42,2.16-3.09,4.31-6.18,6.47-9.27l13.09,34.6,2.37.26c4.28-12.31,9.69-24.31,14.09-36.58,3.07-8.56,9.87-23.09-6.55-21.4ZM374.72,121.97c-2.03,6.81-5.65,15.23-8.37,21.98-.76,1.88-1.48,4.67-2.99,5.91l-11.26-30.6c6.31-7.97,27.6-13.99,22.63,2.72Z"/>
  </g>
  <text class="st4" transform="translate(377.97 148.39) scale(1.29 1)"><tspan x="0" y="0">VENTURES</tspan></text>
  <text class="st6" transform="translate(395.25 157.13) scale(.85 1)"><tspan x="0" y="0">CAPITAL FINANCIAL</tspan></text>
</svg>